<svg width="32" height="32" fill="none" xmlns="http://www.w3.org/2000/svg"><path d="M7 10c-2.951 0-5.403-.639-7-1.712V10c0 1.657 3.134 3 7 3s7-1.343 7-3V8.288C12.403 9.361 9.951 10 7 10ZM7 8c3.866 0 7-1.343 7-3s-3.134-3-7-3-7 1.343-7 3 3.134 3 7 3ZM25 12c3.866 0 7-1.343 7-3s-3.134-3-7-3-7 1.343-7 3 3.134 3 7 3ZM17 23c-2.951 0-5.403-.639-7-1.712V23c0 1.657 3.134 3 7 3s7-1.343 7-3v-1.712C22.403 22.361 19.951 23 17 23ZM17 28c-2.951 0-5.403-.639-7-1.712V28c0 1.657 3.134 3 7 3s7-1.343 7-3v-1.712C22.403 27.361 19.951 28 17 28ZM25 14c-1.061 0-2.054-.086-2.969-.24 1.996.69 3.363 1.815 3.809 3.217C29.309 16.798 32 15.535 32 14v-1.712C30.403 13.361 27.951 14 25 14ZM9.92 14.766A17.81 17.81 0 0 1 7 15c-2.951 0-5.403-.639-7-1.712V15c0 1.657 3.134 3 7 3 .341 0 .674-.014 1.003-.034.012-1.263.707-2.36 1.917-3.2ZM17 21c3.866 0 7-1.343 7-3s-3.134-3-7-3-7 1.343-7 3 3.134 3 7 3ZM26 18.973v2.993c3.391-.208 6-1.455 6-2.966v-1.712c-1.412.95-3.496 1.557-6 1.685ZM26 23.973v2.993c3.391-.208 6-1.455 6-2.966v-1.712c-1.412.95-3.496 1.557-6 1.685ZM8 19.973c-.327.016-.659.027-1 .027-2.951 0-5.403-.639-7-1.712V20c0 1.657 3.134 3 7 3 .34 0 .673-.014 1-.034v-2.993ZM8 24.973c-.327.016-.659.027-1 .027-2.951 0-5.403-.639-7-1.712V25c0 1.657 3.134 3 7 3 .34 0 .673-.014 1-.034v-2.993Z" fill="#fff"></path></svg>