<svg width="32" height="32" fill="none" xmlns="http://www.w3.org/2000/svg"><path d="M13.1 20.4a14.271 14.271 0 0 1-2.2-.8v2.3c1.41.516 2.898.786 4.4.8V25h1.4v-2.4a5.547 5.547 0 0 0 3.3-1.2 3.63 3.63 0 0 0 1.1-2.6 2.794 2.794 0 0 0-.9-2 6.243 6.243 0 0 0-2.8-1.7l-.8-.3v-3.9c1.164.112 2.308.381 3.4.8l.8-2a9.782 9.782 0 0 0-4.1-.9V7h-1.4v1.9a5.949 5.949 0 0 0-3.1 1.2 3.043 3.043 0 0 0-1.2 2.4c.005.834.287 1.643.8 2.3a6.332 6.332 0 0 0 2.6 1.6l.9.3v4a8.332 8.332 0 0 1-2.2-.3Zm3.6-3.2a5.3 5.3 0 0 1 1.5.8 1.3 1.3 0 0 1 .4 1c0 .9-.6 1.4-1.9 1.6v-3.4Zm-2.8-3.8a1.284 1.284 0 0 1-.4-1 1.357 1.357 0 0 1 .5-1c.364-.31.822-.486 1.3-.5v3.3a3.925 3.925 0 0 1-1.4-.8Z" fill="#fff"></path><path fill-rule="evenodd" clip-rule="evenodd" d="M18.926 30.712a15 15 0 1 0-5.853-29.424 15 15 0 0 0 5.853 29.424Zm4.598-25.266A12.984 12.984 0 0 1 16 29a12.984 12.984 0 0 1 0-25.968c2.69.004 5.322.843 7.523 2.414Z" fill="#fff"></path></svg>